# xmcd
#
# Track frame offsets:
#	150
#	13575
#	25912
#	39848
#	54039
#	63712
#	77549
#	89625
#	102231
#	113225
#	127058
#	140499
#	151854
#	166309
#	179107
#	192116
#	203113
#	215977
#	228548
#	240493
#	252421
#	264762
#	275688
#	290936
#	304019
#	319000
#	333679
#
# Disc length: 4646 seconds
#
# Revision: 1
# Processed by: cddbd v1.5.2PL0 Copyright (c) Steve Scherf et al.
# Submitted via: audiograbber 1.83.01
#
DISCID=9012241b
DTITLE=Various Artist - Early Vocal Group Harmony - Vol. 4 (1940-1955)
DYEAR=1900
DGENRE=Vocal
TTITLE0=Dandridge Sisters with the Jimmie Lunceford Orchestra - You Ain't Nowhe
TTITLE0=re (Columbia, 1940)
TTITLE1=Skeets Tolbert and his Gentlemen of Swing - Sammy's Choppin' Block (Decca
TTITLE1=, 1941)
TTITLE2=Ginger Snaps - Shrimp Man (RCA, 1945)
TTITLE3=Wynonie Harris with the Lucky Milinder Orchestra - Who Threw the Whiske
TTITLE3=y In the Well (Decca, 1945)
TTITLE4=Flennoy Trio - Hey Lawdy Mama (Melodisc, 1945)
TTITLE5=Dusty Brooks and his Four Tones - Little Chum (Memo, 1945)
TTITLE6=Celestine Stewart and the Charmers - If I Didn't Have You (Hub, 1946)
TTITLE7=Three Bits of Rhythm - Yas, Yas, Yas (Modern Music, 1946)
TTITLE8=Golden Arrow Quartet - I Want To Be Loved (But Only By You) (Continenta
TTITLE8=l, 1947)
TTITLE9=Ginger Snaps - There's a Big Rock In the Road (RCA, 1947)
TTITLE10=Aristo-Kats - Jack, You're Dead! (RCA, 1947)
TTITLE11=Wingmen Quartet - Low Down the Chariot (Down Beat, 1948)
TTITLE12=Billy Mathews and the Balladeers - I Love You, Yes I Do (Mercury, 1948)
TTITLE13=Four Steps of Jive - Brown Gal (Chord, 1948)
TTITLE14=Commanders - I'd Like To Know You Better Than I Do (Modern, 1948)
TTITLE15=Ebonaires - Sleepy Time Gal (Modern, 1948)
TTITLE16=Ravens with Dinah Washington - Hey Good Lookin' (Mercury, 1951)
TTITLE17=Four Knights - Walkin' and Whistlin' Blues (Capitol, 1951)
TTITLE18=Browley Guy and the Skyscrapers - You Ain't Gonna Worry Me (States, 1952
TTITLE18=)
TTITLE19=Lil Greenwood and Little Willie with the Four Jacks - Monday Morning Blu
TTITLE19=es (Federal, 1952)
TTITLE20=Sarah McLawler and the Syncoettes - Love Sweet Love (King, 1952)
TTITLE21=Jimmy Coe and his Gay Cats of Rhythm - Baby I'm Gone (States, 1953)
TTITLE22=Chuck Wills and the Royals - I've Been Treated Wrong Too Long (Okeh, 195
TTITLE22=3)
TTITLE23=Doris Browne (with vocal group) - Why Don't You Love Me Now, Now, Now 
TTITLE23=(Gotham, 1953)
TTITLE24=Five C's - My Heart's Got the Blues (United, 1954)
TTITLE25=Billy Murray and the Four Cousins - Time and Time Again (20th Century, 1
TTITLE25=954)
TTITLE26=Maples - I Must Forget You (Blue Lake, 1955)
EXTD=
EXTT0=
EXTT1=
EXTT2=
EXTT3=
EXTT4=
EXTT5=
EXTT6=
EXTT7=
EXTT8=
EXTT9=
EXTT10=
EXTT11=
EXTT12=
EXTT13=
EXTT14=
EXTT15=
EXTT16=
EXTT17=
EXTT18=
EXTT19=
EXTT20=
EXTT21=
EXTT22=
EXTT23=
EXTT24=
EXTT25=
EXTT26=
PLAYORDER=
